<svg xmlns="http://www.w3.org/2000/svg" width="550" height="550" viewBox="0 0 550 550" version="1.1"><path d="M 271.942 24.948 C 267.599 26.266, 264.694 28.103, 259.500 32.817 C 251.185 40.364, 188.316 99.697, 175.880 111.735 L 164.260 122.983 175.277 135.241 C 181.337 141.984, 191.441 152.991, 197.731 159.702 L 209.166 171.904 214.042 166.045 C 220.014 158.869, 227.779 152.084, 237.246 145.769 C 249.724 137.446, 259.189 135.010, 279 135.022 C 296.615 135.033, 306.954 138.146, 321.260 147.744 C 336.759 158.142, 351.013 178.339, 358.647 200.717 C 360.854 207.186, 361.383 210.813, 361.778 222.202 C 362.625 246.608, 357.370 266.958, 345.363 285.769 C 342.866 289.682, 342 292.161, 342 295.398 C 342 299.432, 342.391 300.084, 347.250 304.148 C 350.137 306.562, 356.325 311.414, 361 314.928 C 381.842 330.597, 388.943 342.998, 388.985 363.801 L 389 371.101 403.750 387.236 C 428.072 413.842, 454.579 442.375, 456.860 444.405 L 459 446.310 459 353.239 L 459 260.169 468.070 266.318 C 476.876 272.289, 477.358 272.479, 484.585 272.844 C 491.078 273.172, 492.730 272.877, 497.508 270.540 C 507.556 265.624, 511.949 259.510, 512.768 249.297 C 513.364 241.877, 511.516 236.065, 507.111 231.500 C 501.932 226.134, 483.875 208.776, 466.500 192.462 C 457.151 183.683, 440.493 167.950, 429.483 157.500 C 399.333 128.882, 376.421 107.259, 367.500 99.004 C 363.100 94.932, 355.675 87.932, 351 83.448 C 336.284 69.334, 295.880 31.601, 292.943 29.229 C 287.423 24.770, 278.513 22.954, 271.942 24.948 M 63.411 56.891 C 59.187 59.467, 56.181 63.521, 55.397 67.698 C 54.138 74.411, 56.245 77.981, 70.765 93.741 C 78.319 101.940, 86.718 111.090, 89.428 114.074 C 92.138 117.058, 101.605 127.150, 110.466 136.500 C 119.326 145.850, 136.642 164.525, 148.944 178 C 161.247 191.475, 175.646 207.225, 180.942 213 C 186.239 218.775, 195.496 228.900, 201.514 235.500 C 215.113 250.414, 220.944 256.763, 228.122 264.466 C 231.214 267.785, 238.414 275.717, 244.122 282.094 C 249.830 288.470, 265.984 306.245, 280.021 321.594 C 294.057 336.942, 316.094 361.200, 328.993 375.500 C 341.891 389.800, 361.907 411.877, 373.472 424.560 C 385.037 437.243, 403.050 457.039, 413.500 468.551 C 423.950 480.063, 434.975 492.167, 438 495.448 C 451.786 510.401, 455.371 514.349, 466.901 527.273 C 473.659 534.848, 480.571 541.761, 482.260 542.634 C 491.128 547.220, 504.039 538.731, 503.985 528.349 C 503.963 524.111, 502.831 522.599, 486.500 504.999 C 478.250 496.108, 467.712 484.708, 463.081 479.667 C 453.313 469.031, 438.524 452.985, 421.473 434.523 C 414.858 427.360, 403.129 414.525, 395.410 406 C 365.523 372.996, 298.281 299.016, 289.520 289.500 C 284.456 284, 271.626 269.825, 261.009 258 C 250.392 246.175, 239.388 234.025, 236.556 231 C 228.280 222.159, 212.061 204.291, 187.991 177.500 C 175.638 163.750, 160.561 147.100, 154.487 140.500 C 144.323 129.456, 121.627 104.245, 114.500 96.081 C 112.850 94.191, 110.769 91.880, 109.875 90.947 C 108.981 90.013, 102.151 82.501, 94.697 74.254 C 87.243 66.006, 79.926 58.300, 78.437 57.129 C 74.944 54.382, 67.714 54.267, 63.411 56.891 M 96.500 186.216 C 61.546 219.408, 48.225 232.664, 46.527 235.947 C 41.753 245.179, 44 257.980, 51.629 265.012 C 58.424 271.275, 63.758 273.281, 72.450 272.842 C 79.131 272.505, 80.156 272.134, 86.770 267.656 C 90.688 265.003, 94.423 262.195, 95.070 261.416 C 95.716 260.637, 96.640 260, 97.122 260 C 97.621 260, 98 311.540, 98 379.322 C 98 514.424, 97.402 504.497, 106.061 513.156 C 114.542 521.638, 100.986 521.039, 278.253 520.753 L 434.972 520.500 429.672 515 C 425.013 510.165, 404.622 488.051, 368.500 448.660 C 362.450 442.063, 355.541 434.399, 353.146 431.629 C 350.752 428.860, 345.669 423.204, 341.851 419.061 C 333.788 410.310, 333.025 410.521, 333.040 421.500 C 333.051 429.837, 334.273 435.642, 337.386 442.147 L 339.684 446.949 337.566 448.938 L 335.449 450.927 330.349 448.014 C 325.336 445.151, 321.393 440.922, 317.281 434 C 313.936 428.367, 312.707 419.949, 313.423 407.569 C 314.443 389.936, 313.882 388.152, 303.568 376.193 C 298.733 370.587, 294.424 366, 293.992 366 C 292.883 366, 290.115 381.897, 289.465 392 C 287.582 421.280, 286.043 429.994, 280.940 440.279 C 276.514 449.200, 271.798 454.462, 265.443 457.572 C 260.796 459.845, 259.512 460.099, 257.432 459.151 L 254.955 458.022 257.484 453.032 C 262.073 443.975, 265.226 434.154, 266.642 424.500 C 267.773 416.793, 267.427 392.421, 266.061 383.500 C 264.769 375.062, 260.712 356.825, 258.859 351.123 L 257.761 347.746 251.445 357.392 C 242.121 371.633, 240.597 376.146, 240.603 389.500 C 240.606 395.550, 240.971 405.675, 241.414 412 C 242.151 422.529, 242.035 423.986, 240.037 429.252 C 237.123 436.932, 231.108 444.327, 224.882 447.883 C 219.879 450.740, 219.757 450.757, 217.889 448.889 C 216.022 447.022, 216.032 446.882, 218.471 440.878 C 223.466 428.587, 223.791 420.392, 219.892 405.062 C 217.736 396.586, 217.363 381.539, 219.126 374.193 C 219.746 371.612, 222.505 364.117, 225.257 357.538 C 228.857 348.931, 230.528 343.367, 231.213 337.703 C 231.736 333.374, 231.960 329.627, 231.710 329.377 C 230.763 328.429, 204.955 344.254, 203.023 346.968 C 201.274 349.424, 201 351.369, 201 361.339 C 201 376.393, 197.473 393.026, 191.943 404.051 C 189.650 408.624, 182.623 415.642, 177.951 418.025 L 174.299 419.888 170.552 417.342 L 166.806 414.796 169.889 411.615 C 171.738 409.707, 174.003 405.446, 175.549 400.967 C 178.600 392.125, 178.514 386.459, 175.029 367 C 172.389 352.260, 172.762 346.276, 176.871 337.500 C 180.927 328.838, 183.666 326.046, 200.073 313.847 C 208.937 307.257, 215.027 302.028, 215.382 300.702 C 215.707 299.491, 215.979 296.521, 215.986 294.103 C 215.997 290.532, 215.331 288.889, 212.437 285.358 C 209.307 281.538, 202.011 267.535, 201.994 265.316 C 201.988 264.523, 194.470 256.179, 171.527 231.500 C 165.391 224.900, 155.694 214.325, 149.978 208 C 133.361 189.615, 114.844 169.997, 114.145 170.037 C 113.790 170.057, 105.850 177.337, 96.500 186.216 M 315.287 237.413 C 308.163 240.060, 305.427 241.716, 299.845 246.759 C 295.192 250.963, 292 256.697, 292 260.852 C 292 264.264, 300.080 274, 302.911 274 C 303.860 274, 307.048 273.284, 309.994 272.409 C 314.046 271.206, 316.607 269.532, 320.508 265.536 C 326.547 259.350, 329 252.461, 329 241.684 L 329 235 325.250 235.052 C 323.188 235.081, 318.704 236.143, 315.287 237.413" stroke="none" fill="#000000" fill-rule="evenodd"/></svg>