<svg xmlns="http://www.w3.org/2000/svg" width="550" height="550" viewBox="0 0 550 550" version="1.1"><path d="M 272.759 25.373 C 270.702 26.135, 268.002 27.454, 266.759 28.304 C 265.517 29.155, 254.108 39.672, 241.406 51.675 C 228.705 63.679, 201.933 89.025, 181.913 108 C 161.893 126.975, 136.263 151.275, 124.958 162 C 113.653 172.725, 92.566 192.750, 78.099 206.500 C 63.631 220.250, 50.700 233.366, 49.362 235.648 C 48.024 237.929, 46.672 241.979, 46.357 244.648 C 46.042 247.316, 46.282 251.345, 46.890 253.599 C 47.498 255.853, 49.025 259.228, 50.283 261.099 C 51.541 262.970, 55.116 266.253, 58.228 268.397 C 63.242 271.849, 64.720 272.347, 71.198 272.762 C 76.547 273.106, 79.552 272.796, 82.390 271.610 C 84.524 270.719, 89.302 267.742, 93.007 264.995 C 96.713 262.248, 99.915 260, 100.122 260 C 100.330 260, 100.376 313.662, 100.225 379.250 C 99.978 485.909, 100.116 498.941, 101.528 502.674 C 102.397 504.970, 104.414 508.652, 106.012 510.857 C 107.609 513.062, 111.072 516.134, 113.708 517.683 L 118.500 520.500 280.500 520.500 L 442.500 520.500 447.145 517.770 C 449.699 516.268, 453.030 513.568, 454.546 511.770 C 456.062 509.971, 458.022 506.925, 458.902 505 C 460.329 501.875, 460.554 488.613, 461 381.243 L 461.500 260.985 468.368 265.593 C 472.146 268.128, 476.744 270.831, 478.586 271.601 C 480.429 272.370, 484.700 273, 488.078 273 C 493.062 273, 495.345 272.401, 500.185 269.821 C 503.466 268.072, 507.477 265.035, 509.099 263.071 C 510.721 261.107, 512.801 257.117, 513.721 254.205 C 515.122 249.769, 515.208 248.025, 514.252 243.465 C 513.624 240.470, 511.788 236.103, 510.174 233.760 C 508.559 231.417, 504.596 227.048, 501.369 224.052 C 498.141 221.056, 488.988 212.506, 481.029 205.052 C 473.070 197.598, 462.519 187.675, 457.584 183 C 452.648 178.325, 443.646 169.775, 437.579 164 C 431.512 158.225, 421.813 148.995, 416.024 143.489 C 410.236 137.982, 401.673 129.882, 396.995 125.489 C 392.317 121.095, 381.067 110.501, 371.995 101.947 C 362.923 93.394, 351.900 83.081, 347.500 79.031 C 343.100 74.981, 338.564 70.730, 337.420 69.584 C 336.276 68.438, 328.401 60.930, 319.920 52.900 C 311.439 44.870, 301.857 35.936, 298.626 33.047 C 295.395 30.158, 291.308 27.191, 289.544 26.454 C 287.779 25.717, 284.123 24.860, 281.418 24.551 C 278.348 24.200, 275.095 24.509, 272.759 25.373 M 261.411 136.410 C 258.062 137.179, 252.523 139.222, 249.101 140.949 C 245.680 142.676, 240.545 145.741, 237.690 147.761 C 234.836 149.780, 230.312 153.247, 227.637 155.466 C 224.963 157.685, 220.055 163.100, 216.731 167.500 C 213.407 171.900, 209.145 178.875, 207.261 183 C 205.377 187.125, 203.381 191.347, 202.826 192.382 C 202.272 193.417, 201.146 196.117, 200.325 198.382 C 199.504 200.647, 198.246 204.697, 197.528 207.383 C 196.811 210.068, 196.151 217.542, 196.062 223.992 C 195.970 230.677, 196.576 239.915, 197.472 245.481 C 198.336 250.851, 200.428 259.345, 202.120 264.356 C 203.813 269.367, 206.095 275.226, 207.192 277.375 C 208.288 279.525, 211.169 283.404, 213.593 285.996 C 217.708 290.395, 218 291.076, 218 296.261 C 218 301.667, 217.875 301.917, 213.250 305.742 C 210.637 307.902, 204.356 312.692, 199.291 316.385 C 194.226 320.078, 188.202 325.215, 185.904 327.800 C 183.605 330.385, 180.653 334.894, 179.344 337.821 C 177.934 340.972, 176.719 346.070, 176.366 350.321 C 175.907 355.850, 176.395 360.832, 178.491 372 C 180.405 382.199, 181.031 388.051, 180.600 391.729 C 180.263 394.605, 179.044 399.480, 177.891 402.561 C 176.738 405.643, 174.471 409.672, 172.852 411.515 L 169.910 414.867 173.605 417.377 L 177.299 419.888 180.945 418.028 C 182.950 417.005, 186.450 414.150, 188.724 411.684 C 190.998 409.217, 193.782 405.387, 194.912 403.172 C 196.042 400.957, 198.166 395.175, 199.631 390.322 C 201.961 382.609, 202.314 379.615, 202.442 366.500 C 202.529 357.566, 203.041 350.691, 203.708 349.500 C 204.324 348.400, 206.108 346.282, 207.674 344.793 C 209.239 343.305, 215.837 339.154, 222.336 335.569 L 234.154 329.052 233.458 335.776 C 233.076 339.474, 232.180 344.075, 231.467 346 C 230.754 347.925, 228.569 353.325, 226.610 358 C 224.651 362.675, 222.304 369.821, 221.394 373.881 C 220.205 379.189, 219.895 383.822, 220.288 390.381 C 220.589 395.396, 221.588 401.975, 222.509 405 C 223.430 408.025, 224.412 413.925, 224.691 418.112 C 224.971 422.298, 224.695 428.148, 224.079 431.112 C 223.463 434.075, 221.881 438.827, 220.563 441.670 C 218.290 446.573, 218.256 446.922, 219.912 448.420 C 220.872 449.289, 222.193 450, 222.849 450 C 223.504 450, 225.718 448.924, 227.770 447.609 C 229.821 446.294, 232.922 443.707, 234.660 441.859 C 236.398 440.012, 238.924 436.475, 240.274 434 C 241.623 431.525, 243.265 427.215, 243.922 424.422 C 244.579 421.629, 244.886 416.679, 244.604 413.422 C 244.322 410.165, 243.832 405.025, 243.516 402 C 243.199 398.975, 242.712 395.454, 242.433 394.176 C 242.153 392.898, 242.420 388.234, 243.026 383.811 C 243.631 379.389, 245.154 373.459, 246.410 370.635 C 247.666 367.811, 251.268 361.519, 254.416 356.652 C 257.563 351.786, 260.301 347.967, 260.500 348.166 C 260.698 348.365, 262.259 354.372, 263.967 361.514 C 265.676 368.656, 267.522 377.425, 268.069 381 C 268.617 384.575, 269.326 394.485, 269.645 403.023 C 270.002 412.598, 269.793 421.330, 269.097 425.813 C 268.477 429.810, 267.021 435.875, 265.862 439.290 C 264.703 442.706, 262.386 448.110, 260.712 451.299 C 257.938 456.587, 257.809 457.237, 259.251 458.679 C 260.693 460.122, 261.291 460.096, 266.036 458.390 C 269.738 457.059, 272.626 455.001, 276.048 451.257 C 278.694 448.362, 282.200 443.153, 283.841 439.681 C 285.482 436.208, 287.328 431.497, 287.943 429.211 C 288.559 426.925, 289.703 416.568, 290.485 406.194 C 291.268 395.820, 292.399 384.220, 292.999 380.416 C 293.598 376.612, 294.303 372.150, 294.564 370.500 C 294.826 368.850, 295.515 365.025, 296.096 362 C 296.677 358.975, 297.610 354.723, 298.169 352.551 L 299.184 348.602 305.579 358.506 C 309.096 363.954, 312.984 371.356, 314.220 374.955 C 315.966 380.043, 316.463 383.726, 316.456 391.500 C 316.451 397, 316.296 406.450, 316.112 412.500 C 315.829 421.804, 316.102 424.345, 317.879 428.977 C 319.035 431.990, 321.637 436.860, 323.662 439.799 C 326.415 443.798, 328.804 445.882, 333.143 448.072 C 336.333 449.682, 339.165 451, 339.436 451 C 339.708 451, 340.430 450.066, 341.041 448.924 C 341.936 447.252, 341.617 445.550, 339.404 440.174 C 337.066 434.494, 336.645 432.011, 336.578 423.500 C 336.523 416.504, 337.176 410.510, 338.750 403.545 C 339.988 398.070, 341 391.639, 341 389.253 C 341 386.868, 340.287 381.447, 339.415 377.208 C 338.544 372.969, 335.807 364.550, 333.333 358.500 C 330.860 352.450, 328.403 345.733, 327.873 343.572 C 327.343 341.412, 326.793 337.250, 326.650 334.322 C 326.507 331.395, 326.472 329, 326.572 329 C 326.672 329, 331.883 332.038, 338.152 335.750 C 344.421 339.462, 350.490 343.175, 351.639 344 C 352.787 344.825, 354.687 347.075, 355.860 349 C 357.617 351.884, 357.994 354.083, 358 361.500 C 358.005 366.450, 358.666 374.550, 359.470 379.500 C 360.274 384.450, 361.829 391.107, 362.927 394.293 C 364.024 397.479, 366.164 402.368, 367.682 405.157 C 369.200 407.946, 372.255 411.667, 374.471 413.425 C 376.687 415.183, 379.670 417.348, 381.099 418.235 C 383.577 419.773, 383.891 419.720, 387.862 417.091 L 392.027 414.334 389.907 412.417 C 388.741 411.363, 386.993 408.925, 386.022 407 C 385.051 405.075, 383.491 400.415, 382.555 396.645 C 381.574 392.690, 381.058 387.825, 381.336 385.145 C 381.602 382.590, 382.584 376.225, 383.519 371 C 384.665 364.599, 385.066 358.484, 384.750 352.255 C 384.352 344.443, 383.784 342.003, 381.086 336.522 C 378.773 331.825, 376.044 328.393, 371.196 324.083 C 367.513 320.810, 360 314.369, 354.500 309.771 L 344.500 301.409 344.192 296.047 C 343.920 291.309, 344.289 290.093, 347.359 285.592 C 349.270 282.792, 352.168 277.800, 353.800 274.500 C 355.432 271.200, 357.716 265.694, 358.877 262.265 C 360.037 258.836, 361.663 251.861, 362.489 246.765 C 363.316 241.669, 363.994 232.702, 363.996 226.838 C 363.998 220.974, 363.366 212.865, 362.592 208.818 C 361.818 204.771, 359.363 197.236, 357.137 192.073 C 354.912 186.910, 351.414 179.944, 349.364 176.593 C 347.314 173.242, 342.967 167.209, 339.702 163.186 C 336.438 159.164, 330.557 153.471, 326.634 150.536 C 322.710 147.602, 316.350 143.607, 312.500 141.661 C 308.650 139.714, 303.475 137.643, 301 137.059 C 298.525 136.475, 289.975 135.776, 282 135.504 C 271.589 135.150, 265.783 135.406, 261.411 136.410 M 320.782 235.553 C 317.637 236.315, 312.445 238.261, 309.245 239.876 C 306.045 241.492, 301.559 244.840, 299.276 247.316 C 296.821 249.980, 294.647 253.591, 293.953 256.159 C 293.308 258.547, 293.018 262.824, 293.309 265.664 C 293.600 268.504, 294.340 271.767, 294.954 272.914 C 295.869 274.625, 297.021 275, 301.354 275 C 304.260 275, 308.856 274.338, 311.568 273.529 C 314.281 272.720, 318.175 270.672, 320.223 268.978 C 322.424 267.158, 325.263 263.160, 327.168 259.199 C 329.902 253.513, 330.454 251.101, 330.814 243.250 C 331.236 234.048, 331.226 234, 328.869 234.083 C 327.566 234.129, 323.927 234.790, 320.782 235.553 M 229.219 244.250 C 229.568 250.821, 230.372 255.032, 231.995 258.788 C 233.386 262.008, 236.040 265.626, 238.785 268.042 C 241.389 270.334, 245.419 272.641, 248.328 273.505 C 251.097 274.327, 255.891 275, 258.982 275 C 262.072 275, 265.140 274.460, 265.800 273.800 C 266.497 273.103, 267 269.762, 267 265.831 C 267 260.792, 266.435 257.977, 264.789 254.820 C 263.573 252.487, 260.919 248.919, 258.891 246.891 C 256.863 244.863, 253.139 241.994, 250.616 240.515 C 248.093 239.036, 243.659 237.196, 240.764 236.425 C 237.869 235.654, 233.976 235.018, 232.114 235.012 L 228.727 235 229.219 244.250" stroke="none" fill="#000000" fill-rule="evenodd"/></svg>